{
  "accessors": [
    {
      "bufferView": 1,
      "componentType": 5126,
      "count": 65532,
      "max": [
        56.80388641357422,
        2.256573438644409,
        90.52200317382813
      ],
      "min": [
        -49.15156555175781,
        -237.0933837890625,
        -63.785667419433594
      ],
      "type": "VEC3"
    },
    {
      "bufferView": 1,
      "byteOffset": 786384,
      "componentType": 5126,
      "count": 65532,
      "max": [
        0.9999712109565735,
        0.9999150633811951,
        0.9999812841415405
      ],
      "min": [
        -0.9999975562095642,
        -0.9996246695518494,
        -0.9999978542327881
      ],
      "type": "VEC3"
    },
    {
      "bufferView": 2,
      "componentType": 5126,
      "count": 65532,
      "max": [
        0.7372549176216125,
        0.6666666865348816,
        0.5647059082984924,
        1.0
      ],
      "min": [
        0.364705890417099,
        0.054901961237192154,
        0.054901961237192154,
        1.0
      ],
      "type": "VEC4"
    },
    {
      "bufferView": 0,
      "componentType": 5125,
      "count": 348513,
      "type": "SCALAR"
    },
    {
      "bufferView": 1,
      "byteOffset": 1572768,
      "componentType": 5126,
      "count": 65532,
      "max": [
        50.077232360839844,
        3.4208455085754395,
        74.49208068847656
      ],
      "min": [
        -29.974828720092773,
        -274.3417663574219,
        -71.0
      ],
      "type": "VEC3"
    },
    {
      "bufferView": 1,
      "byteOffset": 2359152,
      "componentType": 5126,
      "count": 65532,
      "max": [
        0.9999828338623047,
        0.9999260306358337,
        0.9999973773956299
      ],
      "min": [
        -0.9999911189079285,
        -0.99991774559021,
        -0.9999862909317017
      ],
      "type": "VEC3"
    },
    {
      "bufferView": 2,
      "byteOffset": 1048512,
      "componentType": 5126,
      "count": 65532,
      "max": [
        1.0,
        1.0,
        1.0,
        1.0
      ],
      "min": [
        0.364705890417099,
        0.054901961237192154,
        0.054901961237192154,
        1.0
      ],
      "type": "VEC4"
    },
    {
      "bufferView": 0,
      "byteOffset": 1394052,
      "componentType": 5125,
      "count": 336447,
      "type": "SCALAR"
    },
    {
      "bufferView": 1,
      "byteOffset": 3145536,
      "componentType": 5126,
      "count": 65532,
      "max": [
        47.14662170410156,
        -86.20515441894531,
        30.467239379882813
      ],
      "min": [
        -32.64595031738281,
        -275.01544189453125,
        -46.60292434692383
      ],
      "type": "VEC3"
    },
    {
      "bufferView": 1,
      "byteOffset": 3931920,
      "componentType": 5126,
      "count": 65532,
      "max": [
        0.999985933303833,
        0.9995341897010803,
        0.999991238117218
      ],
      "min": [
        -0.9999960064888,
        -0.9998743534088135,
        -0.9999850988388062
      ],
      "type": "VEC3"
    },
    {
      "bufferView": 2,
      "byteOffset": 2097024,
      "componentType": 5126,
      "count": 65532,
      "max": [
        1.0,
        1.0,
        1.0,
        1.0
      ],
      "min": [
        0.364705890417099,
        0.054901961237192154,
        0.054901961237192154,
        1.0
      ],
      "type": "VEC4"
    },
    {
      "bufferView": 0,
      "byteOffset": 2739840,
      "componentType": 5125,
      "count": 316614,
      "type": "SCALAR"
    },
    {
      "bufferView": 1,
      "byteOffset": 4718304,
      "componentType": 5126,
      "count": 65532,
      "max": [
        35.27766036987305,
        -38.23012924194336,
        64.63966369628906
      ],
      "min": [
        -39.07801818847656,
        -275.0450439453125,
        -37.42749786376953
      ],
      "type": "VEC3"
    },
    {
      "bufferView": 1,
      "byteOffset": 5504688,
      "componentType": 5126,
      "count": 65532,
      "max": [
        0.9999797344207764,
        0.9999445676803589,
        0.9999942183494568
      ],
      "min": [
        -0.9999984502792358,
        -0.9998545050621033,
        -0.9999995827674866
      ],
      "type": "VEC3"
    },
    {
      "bufferView": 2,
      "byteOffset": 3145536,
      "componentType": 5126,
      "count": 65532,
      "max": [
        1.0,
        0.9960784316062927,
        0.9960784316062927,
        1.0
      ],
      "min": [
        0.364705890417099,
        0.054901961237192154,
        0.0,
        1.0
      ],
      "type": "VEC4"
    },
    {
      "bufferView": 0,
      "byteOffset": 4006296,
      "componentType": 5125,
      "count": 323520,
      "type": "SCALAR"
    },
    {
      "bufferView": 1,
      "byteOffset": 6291072,
      "componentType": 5126,
      "count": 65532,
      "max": [
        54.425140380859375,
        3.0239522457122803,
        81.55696105957031
      ],
      "min": [
        -49.15156555175781,
        -262.70611572265625,
        -63.02625274658203
      ],
      "type": "VEC3"
    },
    {
      "bufferView": 1,
      "byteOffset": 7077456,
      "componentType": 5126,
      "count": 65532,
      "max": [
        0.9999951720237732,
        0.9999668598175049,
        0.9999942183494568
      ],
      "min": [
        -0.9999995231628418,
        -0.9981380105018616,
        -0.9999995827674866
      ],
      "type": "VEC3"
    },
    {
      "bufferView": 2,
      "byteOffset": 4194048,
      "componentType": 5126,
      "count": 65532,
      "max": [
        1.0,
        0.9764705896377563,
        0.9725490212440491,
        1.0
      ],
      "min": [
        0.364705890417099,
        0.054901961237192154,
        0.0,
        1.0
      ],
      "type": "VEC4"
    },
    {
      "bufferView": 0,
      "byteOffset": 5300376,
      "componentType": 5125,
      "count": 311835,
      "type": "SCALAR"
    },
    {
      "bufferView": 1,
      "byteOffset": 7863840,
      "componentType": 5126,
      "count": 63691,
      "max": [
        56.80388641357422,
        3.4208455085754395,
        90.52200317382813
      ],
      "min": [
        -46.9473762512207,
        -271.7142333984375,
        -67.72222900390625
      ],
      "type": "VEC3"
    },
    {
      "bufferView": 1,
      "byteOffset": 8628132,
      "componentType": 5126,
      "count": 63691,
      "max": [
        0.9999878406524658,
        0.9998010993003845,
        0.9999942183494568
      ],
      "min": [
        -0.9999960064888,
        -0.9989420175552368,
        -0.9999862909317017
      ],
      "type": "VEC3"
    },
    {
      "bufferView": 2,
      "byteOffset": 5242560,
      "componentType": 5126,
      "count": 63691,
      "max": [
        1.0,
        0.9764705896377563,
        0.9725490212440491,
        1.0
      ],
      "min": [
        0.364705890417099,
        0.054901961237192154,
        0.0,
        1.0
      ],
      "type": "VEC4"
    },
    {
      "bufferView": 0,
      "byteOffset": 6547716,
      "componentType": 5125,
      "count": 201639,
      "type": "SCALAR"
    }
  ],
  "asset": {
    "extras": {
      "author": "Not Cockatiel Slayer 稲妻の柱 (https://sketchfab.com/Not-Cockatiel-Slayer)",
      "license": "CC-BY-4.0 (http://creativecommons.org/licenses/by/4.0/)",
      "source": "https://sketchfab.com/3d-models/armored-titan-reiner-from-seasons-1-3-19f1210a9d344b2f9a31a3f9259d0724",
      "title": "Armored Titan Reiner from Seasons 1-3"
    },
    "generator": "Sketchfab-12.68.0",
    "version": "2.0"
  },
  "bufferViews": [
    {
      "buffer": 0,
      "byteLength": 7354272,
      "name": "floatBufferViews",
      "target": 34963
    },
    {
      "buffer": 0,
      "byteLength": 9392424,
      "byteOffset": 7354272,
      "byteStride": 12,
      "name": "floatBufferViews",
      "target": 34962
    },
    {
      "buffer": 0,
      "byteLength": 6261616,
      "byteOffset": 16746696,
      "byteStride": 16,
      "name": "floatBufferViews",
      "target": 34962
    }
  ],
  "buffers": [
    {
      "byteLength": 23008312,
      "uri": "scene.bin"
    }
  ],
  "materials": [
    {
      "doubleSided": true,
      "name": "specular",
      "pbrMetallicRoughness": {
        "baseColorFactor": [
          0.5757194013916181,
          0.5757194013916181,
          0.5757194013916181,
          1.0
        ],
        "metallicFactor": 0.0,
        "roughnessFactor": 0.6239396906913606
      }
    }
  ],
  "meshes": [
    {
      "name": "Object_0",
      "primitives": [
        {
          "attributes": {
            "COLOR_0": 2,
            "NORMAL": 1,
            "POSITION": 0
          },
          "indices": 3,
          "material": 0,
          "mode": 4
        }
      ]
    },
    {
      "name": "Object_1",
      "primitives": [
        {
          "attributes": {
            "COLOR_0": 6,
            "NORMAL": 5,
            "POSITION": 4
          },
          "indices": 7,
          "material": 0,
          "mode": 4
        }
      ]
    },
    {
      "name": "Object_2",
      "primitives": [
        {
          "attributes": {
            "COLOR_0": 10,
            "NORMAL": 9,
            "POSITION": 8
          },
          "indices": 11,
          "material": 0,
          "mode": 4
        }
      ]
    },
    {
      "name": "Object_3",
      "primitives": [
        {
          "attributes": {
            "COLOR_0": 14,
            "NORMAL": 13,
            "POSITION": 12
          },
          "indices": 15,
          "material": 0,
          "mode": 4
        }
      ]
    },
    {
      "name": "Object_4",
      "primitives": [
        {
          "attributes": {
            "COLOR_0": 18,
            "NORMAL": 17,
            "POSITION": 16
          },
          "indices": 19,
          "material": 0,
          "mode": 4
        }
      ]
    },
    {
      "name": "Object_5",
      "primitives": [
        {
          "attributes": {
            "COLOR_0": 22,
            "NORMAL": 21,
            "POSITION": 20
          },
          "indices": 23,
          "material": 0,
          "mode": 4
        }
      ]
    }
  ],
  "nodes": [
    {
      "children": [
        1
      ],
      "matrix": [
        1.0,
        0.0,
        0.0,
        0.0,
        0.0,
        -1.0,
        0.0,
        0.0,
        0.0,
        0.0,
        -1.0,
        0.0,
        0.0,
        -126.05104064941409,
        145.57284545898435,
        1.0
      ],
      "name": "Sketchfab_model"
    },
    {
      "children": [
        2,
        3,
        4,
        5,
        6,
        7
      ],
      "name": "model.obj.cleaner.materialmerger.gles"
    },
    {
      "mesh": 0,
      "name": "Object_2"
    },
    {
      "mesh": 1,
      "name": "Object_3"
    },
    {
      "mesh": 2,
      "name": "Object_4"
    },
    {
      "mesh": 3,
      "name": "Object_5"
    },
    {
      "mesh": 4,
      "name": "Object_6"
    },
    {
      "mesh": 5,
      "name": "Object_7"
    }
  ],
  "scene": 0,
  "scenes": [
    {
      "name": "Sketchfab_Scene",
      "nodes": [
        0
      ]
    }
  ]
}
