{
  "accessors": [
    {
      "bufferView": 2,
      "componentType": 5126,
      "count": 29254,
      "max": [
        159.28396606445313,
        379.9433898925781,
        546.6495361328125
      ],
      "min": [
        -269.79962158203125,
        -117.74420166015625,
        -0.3494703471660614
      ],
      "type": "VEC3"
    },
    {
      "bufferView": 2,
      "byteOffset": 351048,
      "componentType": 5126,
      "count": 29254,
      "max": [
        0.9999809265136719,
        0.9994677305221558,
        0.9999939203262329
      ],
      "min": [
        -0.9999000430107117,
        -0.9999613761901855,
        -0.9999938607215881
      ],
      "type": "VEC3"
    },
    {
      "bufferView": 1,
      "componentType": 5126,
      "count": 29254,
      "max": [
        0.9941437244415283,
        1.0
      ],
      "min": [
        0.0,
        0.001484990119934082
      ],
      "type": "VEC2"
    },
    {
      "bufferView": 0,
      "componentType": 5125,
      "count": 115662,
      "type": "SCALAR"
    },
    {
      "bufferView": 2,
      "byteOffset": 702096,
      "componentType": 5126,
      "count": 156,
      "max": [
        27.38905906677246,
        101.07744598388672,
        495.170654296875
      ],
      "min": [
        -4.56603479385376,
        16.845115661621094,
        422.8622741699219
      ],
      "type": "VEC3"
    },
    {
      "bufferView": 2,
      "byteOffset": 703968,
      "componentType": 5126,
      "count": 156,
      "max": [
        0.9986394643783569,
        0.8395780324935913,
        0.9339566826820374
      ],
      "min": [
        -0.003300448413938284,
        -0.6177977919578552,
        -0.9823865294456482
      ],
      "type": "VEC3"
    },
    {
      "bufferView": 1,
      "byteOffset": 234032,
      "componentType": 5126,
      "count": 156,
      "max": [
        0.48622775077819824,
        0.9585515260696411
      ],
      "min": [
        0.07441164553165436,
        0.5960015654563904
      ],
      "type": "VEC2"
    },
    {
      "bufferView": 0,
      "byteOffset": 462648,
      "componentType": 5125,
      "count": 594,
      "type": "SCALAR"
    }
  ],
  "asset": {
    "extras": {
      "author": "gabrieel22 (https://sketchfab.com/gabrieel22)",
      "license": "CC-BY-4.0 (http://creativecommons.org/licenses/by/4.0/)",
      "source": "https://sketchfab.com/3d-models/majin-buu-0d1e694edfcd4e82a0031c71d343a710",
      "title": "majin buu"
    },
    "generator": "Sketchfab-12.68.0",
    "version": "2.0"
  },
  "bufferViews": [
    {
      "buffer": 0,
      "byteLength": 465024,
      "name": "floatBufferViews",
      "target": 34963
    },
    {
      "buffer": 0,
      "byteLength": 235280,
      "byteOffset": 465024,
      "byteStride": 8,
      "name": "floatBufferViews",
      "target": 34962
    },
    {
      "buffer": 0,
      "byteLength": 705840,
      "byteOffset": 700304,
      "byteStride": 12,
      "name": "floatBufferViews",
      "target": 34962
    }
  ],
  "buffers": [
    {
      "byteLength": 1406144,
      "uri": "scene.bin"
    }
  ],
  "extensionsRequired": [
    "KHR_materials_pbrSpecularGlossiness"
  ],
  "extensionsUsed": [
    "KHR_materials_pbrSpecularGlossiness"
  ],
  "images": [
    {
      "uri": "textures/material_0_diffuse.png"
    }
  ],
  "materials": [
    {
      "doubleSided": true,
      "extensions": {
        "KHR_materials_pbrSpecularGlossiness": {
          "diffuseFactor": [
            1.0,
            1.0,
            1.0,
            1.0
          ],
          "diffuseTexture": {
            "index": 0
          },
          "glossinessFactor": 0.0,
          "specularFactor": [
            0.0,
            0.0,
            0.0
          ]
        }
      },
      "name": "material_0"
    }
  ],
  "meshes": [
    {
      "name": "Object_0",
      "primitives": [
        {
          "attributes": {
            "NORMAL": 1,
            "POSITION": 0,
            "TEXCOORD_0": 2
          },
          "indices": 3,
          "material": 0,
          "mode": 4
        }
      ]
    },
    {
      "name": "Object_1",
      "primitives": [
        {
          "attributes": {
            "NORMAL": 5,
            "POSITION": 4,
            "TEXCOORD_0": 6
          },
          "indices": 7,
          "material": 0,
          "mode": 4
        }
      ]
    }
  ],
  "nodes": [
    {
      "children": [
        1
      ],
      "matrix": [
        1.0,
        0.0,
        0.0,
        0.0,
        0.0,
        2.220446049250313e-16,
        -1.0,
        0.0,
        0.0,
        1.0,
        2.220446049250313e-16,
        0.0,
        0.0,
        0.0,
        0.0,
        1.0
      ],
      "name": "Sketchfab_model"
    },
    {
      "children": [
        2,
        3
      ],
      "name": "idle2.obj.cleaner.materialmerger.gles"
    },
    {
      "mesh": 0,
      "name": "Object_2"
    },
    {
      "mesh": 1,
      "name": "Object_3"
    }
  ],
  "samplers": [
    {
      "magFilter": 9729,
      "minFilter": 9987,
      "wrapS": 10497,
      "wrapT": 10497
    }
  ],
  "scene": 0,
  "scenes": [
    {
      "name": "Sketchfab_Scene",
      "nodes": [
        0
      ]
    }
  ],
  "textures": [
    {
      "sampler": 0,
      "source": 0
    }
  ]
}
